<svg width="32" height="32" viewBox="0 0 32 32" fill="none" xmlns="http://www.w3.org/2000/svg">
<style>
  path {
    fill: black;
  }
  @media ( prefers-color-scheme: dark ) {
    path {
      fill: #07E23E;
    }
  }
</style>
<path d="M30.9689 9.47695C31.1819 9.57183 31.3761 9.70446 31.542 9.86846C31.5579 9.92309 31.3305 9.82749 31.0348 9.66815C29.8921 9.06215 28.6813 8.5945 27.4281 8.2751C26.8186 8.11804 25.1198 7.96326 26.2137 8.17495C27.5782 8.40257 28.0898 8.68027 29.5498 9.26071C29.5975 9.27906 29.6426 9.30354 29.684 9.33355C29.7022 9.34948 29.6681 9.33355 29.609 9.31761C28.6007 8.89332 27.5513 8.57447 26.4775 8.36615C26.6452 8.41241 26.8087 8.47256 26.9664 8.54597H26.9937C27.1247 8.58327 27.2473 8.64506 27.3553 8.72807C27.3553 8.744 27.0369 8.75311 26.0522 8.56646C25.5974 8.47769 25.5747 8.53914 25.9908 8.61426C26.6199 8.71188 27.2367 8.87671 27.8306 9.10592C27.985 9.15606 28.1367 9.2138 28.2854 9.27892C28.6083 9.40183 28.8403 9.53841 28.8198 9.57483C28.6125 9.55262 28.4099 9.49809 28.2195 9.41321H28.1808C27.726 9.25843 27.8488 9.34493 29.0154 9.86846C29.0905 9.89316 29.1595 9.9335 29.2178 9.98682C29.2178 10.0028 29.1177 9.97089 29.004 9.92081C27.9863 9.48167 26.9162 9.17565 25.8203 9.01032C25.6701 8.98233 25.5181 8.96484 25.3655 8.95797C25.3655 8.95797 25.4087 8.95797 26.0477 9.09454C26.4935 9.17258 26.9276 9.3072 27.3394 9.49516C27.3826 9.5202 27.4122 9.54296 27.4213 9.54751C27.4303 9.55206 27.4213 9.56117 27.353 9.54751C27.0961 9.47695 26.4843 9.37224 26.3524 9.34948H26.3388C25.5398 9.24473 24.7326 9.21653 23.9282 9.26526C23.0915 9.30917 22.2639 9.45987 21.4653 9.71367C20.6269 9.99052 19.8198 10.3544 19.057 10.7994C18.0613 11.3835 17.1442 12.0926 16.3281 12.9095C15.4856 13.7461 14.7242 14.6606 14.054 15.641C13.8948 15.8686 13.2808 16.7791 13.2808 16.7791C13.1421 17.0067 13.0079 17.2343 12.876 17.4619C12.7441 17.6896 12.6167 17.9308 12.4917 18.1835L12.1096 18.9733L11.3569 20.5667C11.3569 20.5667 7.76605 15.4088 7.75013 15.3906C7.75013 15.4406 4.12518 23.9719 3.93188 24.4112C3.40884 23.5007 2.94037 22.6449 2.6038 21.9848C2.39005 21.5911 2.20462 21.1826 2.04891 20.7625C2.03969 20.735 2.03285 20.7068 2.02845 20.6782C2.00571 20.5462 2.07166 20.5826 2.2172 20.7283C2.28315 20.7829 2.34682 20.8421 2.40822 20.9036L2.29907 20.6555C1.91474 19.7951 0.663976 16.9634 0.58893 16.6129C0.532631 16.4078 0.488586 16.1995 0.457031 15.9892H0.525255C0.678963 16.0648 0.823867 16.1572 0.957337 16.2646L1.03921 16.3079C0.998271 16.1053 1.1279 15.9892 1.21659 16.1121L0.852728 15.3314C0.78315 15.2127 0.726722 15.0868 0.684443 14.9558C0.621164 14.7403 0.578522 14.5193 0.557092 14.2957C0.557092 14.2798 0.557092 14.2616 0.584382 14.2661C0.621784 14.2882 0.653667 14.3186 0.677621 14.3549C0.70457 14.3854 0.728913 14.4182 0.750393 14.4528L0.857276 14.6007L0.961886 14.776L0.941418 14.6667C0.941418 14.6144 0.884566 14.4505 0.861824 14.3754C0.839083 14.3003 0.895936 14.2707 0.982353 14.3549C1.21353 14.6147 1.41844 14.8968 1.59409 15.1971L1.54179 15.0856C1.16656 14.3071 1.17793 14.0544 1.56908 14.5188C1.87608 14.883 3.75223 17.9081 3.75223 17.9081L7.18615 9.82293C7.35898 10.071 11.1454 16.0256 11.1454 16.0256C11.1454 16.0256 11.4001 15.6182 11.5752 15.361L11.7867 15.0514C11.8845 14.908 11.9845 14.7646 12.0914 14.6212C12.2991 14.3359 12.5144 14.0537 12.7373 13.7745C12.8646 13.6106 12.9942 13.4467 13.1239 13.2873C13.2535 13.128 13.3945 12.9709 13.5355 12.8321C14.2241 12.0536 14.9772 11.3348 15.7869 10.6833C16.614 10.0086 17.5096 9.42266 18.459 8.93521C19.2638 8.52407 20.1109 8.20198 20.9855 7.97464C21.8656 7.74508 22.7689 7.61678 23.6781 7.59224C24.9631 7.56106 26.2458 7.71904 27.4849 8.06114C28.6969 8.39704 29.866 8.87213 30.9689 9.47695Z" fill="#07E23E"/>
</svg>
